<svg xmlns="http://www.w3.org/2000/svg" width="360" height="96" viewBox="0 0 360 96">
  <defs><clipPath id="round"><rect x="0" y="0" width="360" height="96" rx="24" ry="24"/></clipPath></defs>
  <g clip-path="url(#round)"><rect x="0" y="0" width="360" height="96" fill="#D84315"/></g>
  <g transform="translate(24,32)"><svg xmlns="http://www.w3.org/2000/svg" viewBox="0 0 24 24" width="28" height="28">
  <rect x="6" y="2" width="12" height="20" rx="2" ry="2" fill="none" stroke="#FFFFFF" stroke-width="2"/>
  <circle cx="12" cy="18.5" r="1" fill="#FFFFFF"/>
</svg></g>
  <g font-family="system-ui, -apple-system, 'Segoe UI', Roboto, Helvetica, Arial" fill="#FFFFFF">
    <text x="72" y="46" font-size="22" font-weight="700">Pass Phone 2P</text>
    <text x="72" y="68" font-size="14" opacity="0.95">Face-to-face with different puzzles</text>
  </g>
  <g transform="translate(308,34)"><svg xmlns="http://www.w3.org/2000/svg" viewBox="0 0 24 24" width="24" height="24">
  <g fill="none" stroke="#FFFFFF" stroke-width="2" stroke-linecap="round" stroke-linejoin="round">
    <path d="M5 10v4h4l5 4V6l-5 4H5z"/>
    <path d="M16.5 8.5a4 4 0 0 1 0 7"/>
    <path d="M19 6a7 7 0 0 1 0 12"/>
  </g>
</svg></g>
</svg>